<svg width="35" height="35" viewBox="0 0 35 35" fill="none" xmlns="http://www.w3.org/2000/svg">
<rect x="0.115753" y="0.744507" width="34" height="34" rx="6" fill="#28C76F" fill-opacity="0.08"/>
<path d="M22.6158 14.0778C24.1345 14.0778 25.3658 15.3091 25.3658 16.8278C25.3658 18.3466 24.1345 19.5778 22.6158 19.5778" stroke="#28C76F" stroke-width="1.5" stroke-linecap="round" stroke-linejoin="round"/>
<path d="M15.2824 14.0778V24.1612C15.2824 24.6674 14.872 25.0778 14.3657 25.0778H13.4491C12.9428 25.0778 12.5324 24.6674 12.5324 24.1612V19.5778" stroke="#28C76F" stroke-width="1.5" stroke-linecap="round" stroke-linejoin="round"/>
<path d="M17.1158 14.0778V14.0778L21.2628 10.622C21.5088 10.4171 21.8511 10.373 22.141 10.5089C22.4308 10.6448 22.6159 10.9361 22.6158 11.2563V22.3993C22.6159 22.7195 22.4308 23.0108 22.141 23.1467C21.8511 23.2826 21.5088 23.2385 21.2628 23.0336L17.1158 19.5778H9.78242C9.27616 19.5778 8.86575 19.1674 8.86575 18.6611V14.9945C8.86575 14.4882 9.27616 14.0778 9.78242 14.0778H17.1158" stroke="#28C76F" stroke-width="1.5" stroke-linecap="round" stroke-linejoin="round"/>
</svg>
