<svg width="24" height="25" viewBox="0 0 24 25" fill="none" xmlns="http://www.w3.org/2000/svg">
<mask id="mask0_9_1086" style="mask-type:alpha" maskUnits="userSpaceOnUse" x="4" y="4" width="16" height="17">
<path d="M18.7895 11.5046H7.61953L12.4995 6.62459C12.8895 6.23459 12.8895 5.59459 12.4995 5.20459C12.3127 5.01734 12.059 4.91211 11.7945 4.91211C11.53 4.91211 11.2764 5.01734 11.0895 5.20459L4.49953 11.7946C4.10953 12.1846 4.10953 12.8146 4.49953 13.2046L11.0895 19.7946C11.4795 20.1846 12.1095 20.1846 12.4995 19.7946C12.8895 19.4046 12.8895 18.7746 12.4995 18.3846L7.61953 13.5046H18.7895C19.3395 13.5046 19.7895 13.0546 19.7895 12.5046C19.7895 11.9546 19.3395 11.5046 18.7895 11.5046Z" fill="black"/>
</mask>
<g mask="url(#mask0_9_1086)">
<rect y="0.5" width="24" height="24" fill="#061E40"/>
</g>
</svg>
