<svg width="13" height="14" viewBox="0 0 13 14" fill="none" xmlns="http://www.w3.org/2000/svg">
<path fill-rule="evenodd" clip-rule="evenodd" d="M4.95956 1.43613C5.18014 1.43613 5.35895 1.61494 5.35895 1.83551V2.5068C5.71532 2.50115 6.1113 2.50115 6.55121 2.50115H6.56298C7.0029 2.50115 7.39887 2.50115 7.75525 2.5068V1.83551C7.75525 1.61494 7.93406 1.43613 8.15463 1.43613C8.3752 1.43613 8.55401 1.61494 8.55401 1.83551V2.53501C9.35913 2.58548 9.97765 2.71594 10.4869 3.08593C10.7468 3.27479 10.9754 3.50338 11.1643 3.76333C11.4763 4.1927 11.616 4.6956 11.6832 5.31626C11.7491 5.92445 11.7491 6.69106 11.7491 7.66903V7.69924C11.7491 8.31689 11.7491 8.84793 11.7334 9.30434C11.6993 10.302 11.5913 11.0352 11.1643 11.6229C10.9754 11.8829 10.7468 12.1115 10.4869 12.3003C9.89919 12.7273 9.16594 12.8353 8.16831 12.8695C7.7118 12.8851 7.18065 12.8851 6.56284 12.8851H6.53299C5.55502 12.8851 4.78842 12.8851 4.18022 12.8192C3.55956 12.752 3.05667 12.6123 2.62729 12.3003C2.36735 12.1115 2.13875 11.8829 1.94989 11.6229C1.63793 11.1936 1.49824 10.6907 1.431 10.07C1.3651 9.46181 1.36511 8.69521 1.36511 7.71723V7.66904C1.36511 6.69106 1.3651 5.92446 1.431 5.31626C1.49824 4.6956 1.63793 4.1927 1.94989 3.76333C2.13875 3.50338 2.36735 3.27479 2.62729 3.08593C3.13654 2.71594 3.75507 2.58548 4.56018 2.53501V1.83551C4.56018 1.61494 4.73899 1.43613 4.95956 1.43613ZM4.56018 3.33573C3.83487 3.38561 3.41623 3.50006 3.09679 3.73214C2.90466 3.87174 2.7357 4.0407 2.59611 4.23283C2.39956 4.50335 2.285 4.8496 2.22512 5.40229C2.16443 5.96247 2.16388 6.68585 2.16388 7.69313C2.16388 8.70042 2.16443 9.4238 2.22512 9.98397C2.285 10.5367 2.39956 10.8829 2.59611 11.1534C2.7357 11.3456 2.90466 11.5145 3.09679 11.6541C3.36731 11.8507 3.71356 11.9652 4.26626 12.0251C4.82643 12.0858 5.54981 12.0864 6.5571 12.0864C7.00885 12.0864 7.40474 12.0863 7.75622 12.0806C7.75854 11.8278 7.76641 11.6418 7.79294 11.4742C8.00046 10.164 9.02801 9.13649 10.3382 8.92898C10.5057 8.90245 10.6918 8.89458 10.9446 8.89226C10.9503 8.54078 10.9503 8.14489 10.9503 7.69313C10.9503 6.68585 10.9498 5.96247 10.8891 5.40229C10.8292 4.84959 10.7146 4.50335 10.5181 4.23283C10.3785 4.0407 10.2095 3.87174 10.0174 3.73214C9.69797 3.50006 9.27932 3.38561 8.55401 3.33573V3.43304C8.55401 3.65362 8.3752 3.83243 8.15463 3.83243C7.93406 3.83243 7.75525 3.65362 7.75525 3.43304V3.30566C7.40401 3.29994 7.00844 3.29992 6.5571 3.29992C6.10576 3.29992 5.71018 3.29994 5.35895 3.30566V3.43304C5.35895 3.65362 5.18014 3.83243 4.95956 3.83243C4.73899 3.83243 4.56018 3.65362 4.56018 3.43304V3.33573ZM10.9144 9.69153C10.6988 9.69403 10.5723 9.70062 10.4631 9.71791C9.49475 9.87129 8.73526 10.6308 8.58188 11.5992C8.56458 11.7084 8.55799 11.8348 8.5555 12.0504C9.27989 12.0005 9.69819 11.886 10.0174 11.6541C10.2095 11.5145 10.3785 11.3456 10.5181 11.1534C10.75 10.8342 10.8645 10.4159 10.9144 9.69153Z" fill="#7A86A1"/>
<path d="M4.42705 5.56309C4.42705 5.85719 4.18864 6.0956 3.89454 6.0956C3.60044 6.0956 3.36203 5.85719 3.36203 5.56309C3.36203 5.26899 3.60044 5.03058 3.89454 5.03058C4.18864 5.03058 4.42705 5.26899 4.42705 5.56309Z" fill="#7A86A1"/>
<path d="M4.42705 7.69313C4.42705 7.98723 4.18864 8.22565 3.89454 8.22565C3.60044 8.22565 3.36203 7.98723 3.36203 7.69313C3.36203 7.39904 3.60044 7.16062 3.89454 7.16062C4.18864 7.16062 4.42705 7.39904 4.42705 7.69313Z" fill="#7A86A1"/>
<path d="M7.08961 5.56309C7.08961 5.85719 6.85119 6.0956 6.5571 6.0956C6.263 6.0956 6.02459 5.85719 6.02459 5.56309C6.02459 5.26899 6.263 5.03058 6.5571 5.03058C6.85119 5.03058 7.08961 5.26899 7.08961 5.56309Z" fill="#7A86A1"/>
<path d="M7.08961 7.69313C7.08961 7.98723 6.85119 8.22565 6.5571 8.22565C6.263 8.22565 6.02459 7.98723 6.02459 7.69313C6.02459 7.39904 6.263 7.16062 6.5571 7.16062C6.85119 7.16062 7.08961 7.39904 7.08961 7.69313Z" fill="#7A86A1"/>
<path d="M7.08961 9.82318C7.08961 10.1173 6.85119 10.3557 6.5571 10.3557C6.263 10.3557 6.02459 10.1173 6.02459 9.82318C6.02459 9.52908 6.263 9.29067 6.5571 9.29067C6.85119 9.29067 7.08961 9.52908 7.08961 9.82318Z" fill="#7A86A1"/>
<path d="M9.75216 5.56309C9.75216 5.85719 9.51375 6.0956 9.21965 6.0956C8.92556 6.0956 8.68714 5.85719 8.68714 5.56309C8.68714 5.26899 8.92556 5.03058 9.21965 5.03058C9.51375 5.03058 9.75216 5.26899 9.75216 5.56309Z" fill="#7A86A1"/>
<path d="M9.75216 7.69313C9.75216 7.98723 9.51375 8.22565 9.21965 8.22565C8.92556 8.22565 8.68714 7.98723 8.68714 7.69313C8.68714 7.39904 8.92556 7.16062 9.21965 7.16062C9.51375 7.16062 9.75216 7.39904 9.75216 7.69313Z" fill="#7A86A1"/>
<path d="M4.42705 9.82318C4.42705 10.1173 4.18864 10.3557 3.89454 10.3557C3.60044 10.3557 3.36203 10.1173 3.36203 9.82318C3.36203 9.52908 3.60044 9.29067 3.89454 9.29067C4.18864 9.29067 4.42705 9.52908 4.42705 9.82318Z" fill="#7A86A1"/>
</svg>
