<svg width="35" height="35" viewBox="0 0 35 35" fill="none" xmlns="http://www.w3.org/2000/svg">
<rect x="0.115723" y="0.744507" width="34" height="34" rx="6" fill="#F96767" fill-opacity="0.08"/>
<path fill-rule="evenodd" clip-rule="evenodd" d="M17.8032 11.3278C17.8032 10.9481 17.4954 10.6403 17.1157 10.6403C16.736 10.6403 16.4282 10.9481 16.4282 11.3278V11.6103C16.1287 11.6854 15.8348 11.8028 15.5549 11.9644C13.0599 13.4049 13.377 17.1018 16.0809 18.0964L16.4282 18.2241V22.529C15.9379 22.3907 15.4998 22.0684 15.2256 21.5934L14.8813 20.9971C14.6915 20.6682 14.271 20.5556 13.9422 20.7454C13.6133 20.9353 13.5007 21.3557 13.6905 21.6846L14.0348 22.2809C14.5651 23.1993 15.459 23.7758 16.4282 23.9352V24.1612C16.4282 24.5409 16.736 24.8487 17.1157 24.8487C17.4954 24.8487 17.8032 24.5409 17.8032 24.1612V23.8788C18.1028 23.8037 18.3968 23.6863 18.6767 23.5246C21.1717 22.0841 20.8546 18.3872 18.1507 17.3926L17.8032 17.2648L17.8032 12.96C18.2936 13.0982 18.7317 13.4205 19.006 13.8956L19.3503 14.4919C19.5401 14.8208 19.9606 14.9334 20.2894 14.7436C20.6183 14.5537 20.7309 14.1333 20.5411 13.8044L20.1968 13.2081C19.6665 12.2897 18.7725 11.7131 17.8032 11.5538V11.3278ZM16.2424 13.1551C16.3034 13.1199 16.3654 13.0883 16.4282 13.0601L16.4282 16.7545C14.9368 16.0958 14.7971 13.9896 16.2424 13.1551ZM17.9892 22.3339C17.9281 22.3691 17.866 22.4008 17.8032 22.429V18.7345C19.2948 19.393 19.4346 21.4994 17.9892 22.3339Z" fill="#F96767"/>
<path fill-rule="evenodd" clip-rule="evenodd" d="M17.1157 7.89034C11.6734 7.89034 7.26154 12.3022 7.26154 17.7445C7.26154 23.1868 11.6734 27.5987 17.1157 27.5987C22.558 27.5987 26.9699 23.1868 26.9699 17.7445C26.9699 12.3022 22.558 7.89034 17.1157 7.89034ZM8.63654 17.7445C8.63654 13.0616 12.4328 9.26534 17.1157 9.26534C21.7986 9.26534 25.5949 13.0616 25.5949 17.7445C25.5949 22.4274 21.7986 26.2237 17.1157 26.2237C12.4328 26.2237 8.63654 22.4274 8.63654 17.7445Z" fill="red"/>
</svg>
