<svg width="22" height="21" viewBox="0 0 22 21" fill="none" xmlns="http://www.w3.org/2000/svg">
<path d="M14.9822 20.4177C14.1573 20.4017 13.3719 20.0617 12.7956 19.4713C12.2193 18.8809 11.8984 18.0875 11.9023 17.2625V14.1887C11.895 13.3638 12.2151 12.5696 12.7925 11.9804C13.3699 11.3912 14.1573 11.0551 14.9822 11.0457H17.9949C18.8203 11.0577 19.6077 11.3943 20.1867 11.9825C20.7658 12.5707 21.09 13.3633 21.0891 14.1887V17.2625C21.0893 18.0878 20.7661 18.8803 20.1888 19.4701C19.6116 20.06 18.8262 20.4001 18.001 20.4177H14.9822ZM13.5573 14.1877V17.2625C13.5536 17.6482 13.703 18.0197 13.9725 18.2956C14.102 18.4305 14.2573 18.5379 14.4292 18.6115C14.6011 18.6852 14.7861 18.7234 14.9731 18.7241H18.0072C18.1941 18.7234 18.3791 18.6852 18.551 18.6115C18.7229 18.5379 18.8782 18.4305 19.0077 18.2956C19.2773 18.0197 19.4263 17.6481 19.4219 17.2625V14.1887C19.4234 13.8039 19.2735 13.4339 19.0046 13.1587C18.8739 13.0234 18.7174 12.9157 18.5443 12.8421C18.3712 12.7685 18.1851 12.7304 17.997 12.7302H14.9822C14.6 12.735 14.2352 12.8913 13.9681 13.1647C13.701 13.4382 13.5532 13.8064 13.5573 14.1887V14.1877ZM3.81988 20.4014C2.99926 20.3753 2.22035 20.0336 1.64531 19.4476C1.07028 18.8616 0.743442 18.0763 0.732852 17.2554V14.1887C0.731706 13.3569 1.05654 12.5578 1.63769 11.9627C1.92197 11.672 2.26162 11.4411 2.63659 11.2838C3.01156 11.1264 3.41425 11.0458 3.82089 11.0467H5.05855C5.2144 11.0299 5.3718 11.058 5.51225 11.1276C5.6527 11.1972 5.77037 11.3054 5.85143 11.4396C5.93428 11.575 5.97812 11.7307 5.97812 11.8895C5.97812 12.0482 5.93428 12.2039 5.85143 12.3393C5.77032 12.4735 5.65268 12.5818 5.51227 12.6516C5.37185 12.7213 5.21447 12.7496 5.05855 12.7332H3.82191C3.43901 12.7372 3.07325 12.8925 2.8044 13.1652C2.53555 13.4379 2.38543 13.8058 2.3868 14.1887V17.2258C2.39291 17.6065 2.54545 17.9701 2.81271 18.2411C3.07998 18.5122 3.44142 18.6698 3.82191 18.6813H6.85397C7.04376 18.6822 7.23177 18.6448 7.40669 18.5711C7.58161 18.4975 7.73981 18.3892 7.87178 18.2528C8.14257 17.9772 8.29395 17.6061 8.29316 17.2197V12.664C8.2626 12.4984 8.28154 12.3274 8.34761 12.1724C8.41369 12.0174 8.52396 11.8854 8.66466 11.7928C8.80395 11.7014 8.96793 11.6549 9.13447 11.6596C9.301 11.6644 9.46208 11.7201 9.59596 11.8192C9.73122 11.9198 9.83386 12.058 9.89106 12.2166C9.94826 12.3751 9.95748 12.547 9.91758 12.7108V17.2523C9.92215 17.6623 9.84589 18.0691 9.69314 18.4496C9.5404 18.8301 9.31417 19.1768 9.02739 19.4698C8.7406 19.7628 8.39889 19.9965 8.02177 20.1574C7.64466 20.3183 7.23953 20.4033 6.82955 20.4075L3.81988 20.4014ZM16.7939 9.46401C16.5882 9.43821 16.399 9.33818 16.2618 9.18272C16.1246 9.02726 16.0489 8.82705 16.0489 8.61972C16.0489 8.4124 16.1246 8.2122 16.2618 8.05674C16.399 7.90128 16.5882 7.80126 16.7939 7.77545H18.0031C18.1936 7.7743 18.3819 7.73477 18.5567 7.65922C18.7316 7.58368 18.8895 7.47367 19.0209 7.33577C19.2883 7.05371 19.4345 6.67806 19.428 6.28946V3.21668C19.4268 2.8363 19.2772 2.47139 19.0111 2.19957C18.745 1.92776 18.3834 1.77048 18.0031 1.76121H14.9822C14.6004 1.76577 14.236 1.92156 13.9689 2.1944C13.7018 2.46724 13.5537 2.83487 13.5573 3.21668V7.81617C13.5525 8.0382 13.4608 8.24946 13.3018 8.40458C13.1429 8.5597 12.9295 8.64628 12.7074 8.64569C12.5982 8.64301 12.4906 8.61837 12.3911 8.57326C12.2917 8.52814 12.2023 8.46347 12.1283 8.38309C11.9788 8.21768 11.9002 8.00022 11.9094 7.77749V3.21668C11.9054 2.38432 12.2281 1.58359 12.8082 0.98665C13.0907 0.695473 13.4286 0.463653 13.8019 0.30478C14.1752 0.145907 14.5765 0.0631838 14.9822 0.0614624H17.9949C18.8157 0.0897313 19.5939 0.433561 20.1674 1.02133C20.741 1.6091 21.0657 2.39549 21.0738 3.21668V6.28335C21.0854 7.11366 20.7716 7.91553 20.1995 8.51744C19.9198 8.8118 19.5841 9.0474 19.2122 9.21046C18.8403 9.37352 18.4396 9.46075 18.0336 9.46706L16.7939 9.46401ZM6.83972 9.43449H3.82191C2.99746 9.4206 2.21151 9.08318 1.63361 8.495C1.05572 7.90682 0.732201 7.11503 0.732852 6.29046V3.21668C0.732665 2.39138 1.05585 1.59885 1.63312 1.00903C2.21038 0.419205 2.99577 0.0790334 3.82089 0.0614624H6.83972C7.66548 0.0759117 8.45228 0.415225 9.02956 1.00585C9.60685 1.59647 9.9281 2.39081 9.92369 3.21668V6.2925C9.92747 7.12478 9.60225 7.92486 9.01886 8.51847C8.73558 8.80943 8.39669 9.04045 8.02234 9.19782C7.64798 9.35518 7.24581 9.43567 6.83972 9.43449ZM2.79494 2.17545C2.52099 2.45201 2.36704 2.82538 2.36644 3.21465V6.29046C2.36255 6.48573 2.39743 6.67984 2.46906 6.86154C2.54069 7.04324 2.64765 7.20892 2.78374 7.349C2.91453 7.48359 3.0708 7.59079 3.24345 7.66436C3.4161 7.73793 3.60167 7.77638 3.78934 7.77749H6.84277C7.03331 7.77662 7.2217 7.73722 7.39662 7.66166C7.57153 7.5861 7.72935 7.47594 7.86059 7.3378C8.12884 7.05628 8.27515 6.68028 8.26771 6.29149V3.21668C8.26727 2.83606 8.11796 2.4707 7.85169 2.19872C7.58541 1.92674 7.2233 1.76971 6.84277 1.76121H3.79443C3.60871 1.76069 3.42473 1.79704 3.25317 1.86815C3.0816 1.93926 2.92585 2.04371 2.79494 2.17545Z" fill="white"/>
</svg>
