<svg width="58" height="58" viewBox="0 0 58 58" fill="none" xmlns="http://www.w3.org/2000/svg">
<rect x="2.44784" y="2.77648" width="52.9262" height="52.9262" rx="26.4631" fill="#04B4AD"/>
<rect x="2.44784" y="2.77648" width="52.9262" height="52.9262" rx="26.4631" stroke="white" stroke-width="4.07125"/>
<path d="M32.9822 39.4177C32.1573 39.4017 31.3719 39.0617 30.7956 38.4713C30.2193 37.8809 29.8984 37.0875 29.9023 36.2625V33.1887C29.895 32.3638 30.2151 31.5696 30.7925 30.9804C31.3699 30.3912 32.1573 30.0551 32.9822 30.0457H35.9949C36.8203 30.0577 37.6077 30.3943 38.1867 30.9825C38.7658 31.5707 39.09 32.3633 39.0891 33.1887V36.2625C39.0893 37.0878 38.7661 37.8803 38.1888 38.4701C37.6116 39.06 36.8262 39.4001 36.001 39.4177H32.9822ZM31.5573 33.1877V36.2625C31.5536 36.6482 31.703 37.0197 31.9725 37.2956C32.102 37.4305 32.2573 37.5379 32.4292 37.6115C32.6011 37.6852 32.7861 37.7234 32.9731 37.7241H36.0072C36.1941 37.7234 36.3791 37.6852 36.551 37.6115C36.7229 37.5379 36.8782 37.4305 37.0077 37.2956C37.2773 37.0197 37.4263 36.6481 37.4219 36.2625V33.1887C37.4234 32.8039 37.2735 32.4339 37.0046 32.1587C36.8739 32.0234 36.7174 31.9157 36.5443 31.8421C36.3712 31.7685 36.1851 31.7304 35.997 31.7302H32.9822C32.6 31.735 32.2352 31.8913 31.9681 32.1647C31.701 32.4382 31.5532 32.8064 31.5573 33.1887V33.1877ZM21.8199 39.4014C20.9993 39.3753 20.2203 39.0336 19.6453 38.4476C19.0703 37.8616 18.7434 37.0763 18.7329 36.2554V33.1887C18.7317 32.3569 19.0565 31.5578 19.6377 30.9627C19.922 30.672 20.2616 30.4411 20.6366 30.2838C21.0116 30.1264 21.4143 30.0458 21.8209 30.0467H23.0586C23.2144 30.0299 23.3718 30.058 23.5122 30.1276C23.6527 30.1972 23.7704 30.3054 23.8514 30.4396C23.9343 30.575 23.9781 30.7307 23.9781 30.8895C23.9781 31.0482 23.9343 31.2039 23.8514 31.3393C23.7703 31.4735 23.6527 31.5818 23.5123 31.6516C23.3719 31.7213 23.2145 31.7496 23.0586 31.7332H21.8219C21.439 31.7372 21.0732 31.8925 20.8044 32.1652C20.5355 32.4379 20.3854 32.8058 20.3868 33.1887V36.2258C20.3929 36.6065 20.5454 36.9701 20.8127 37.2411C21.08 37.5122 21.4414 37.6698 21.8219 37.6813H24.854C25.0438 37.6822 25.2318 37.6448 25.4067 37.5711C25.5816 37.4975 25.7398 37.3892 25.8718 37.2528C26.1426 36.9772 26.2939 36.6061 26.2932 36.2197V31.664C26.2626 31.4984 26.2815 31.3274 26.3476 31.1724C26.4137 31.0174 26.524 30.8854 26.6647 30.7928C26.804 30.7014 26.9679 30.6549 27.1345 30.6596C27.301 30.6644 27.4621 30.7201 27.596 30.8192C27.7312 30.9198 27.8339 31.058 27.8911 31.2166C27.9483 31.3751 27.9575 31.547 27.9176 31.7108V36.2523C27.9222 36.6623 27.8459 37.0691 27.6931 37.4496C27.5404 37.8301 27.3142 38.1768 27.0274 38.4698C26.7406 38.7628 26.3989 38.9965 26.0218 39.1574C25.6447 39.3183 25.2395 39.4033 24.8295 39.4075L21.8199 39.4014ZM34.7939 28.464C34.5882 28.4382 34.399 28.3382 34.2618 28.1827C34.1246 28.0273 34.0489 27.8271 34.0489 27.6197C34.0489 27.4124 34.1246 27.2122 34.2618 27.0567C34.399 26.9013 34.5882 26.8013 34.7939 26.7755H36.0031C36.1936 26.7743 36.3819 26.7348 36.5567 26.6592C36.7316 26.5837 36.8895 26.4737 37.0209 26.3358C37.2883 26.0537 37.4345 25.6781 37.428 25.2895V22.2167C37.4268 21.8363 37.2772 21.4714 37.0111 21.1996C36.745 20.9278 36.3834 20.7705 36.0031 20.7612H32.9822C32.6004 20.7658 32.236 20.9216 31.9689 21.1944C31.7018 21.4672 31.5537 21.8349 31.5573 22.2167V26.8162C31.5525 27.0382 31.4608 27.2495 31.3018 27.4046C31.1429 27.5597 30.9295 27.6463 30.7074 27.6457C30.5982 27.643 30.4906 27.6184 30.3911 27.5733C30.2917 27.5281 30.2023 27.4635 30.1283 27.3831C29.9788 27.2177 29.9002 27.0002 29.9094 26.7775V22.2167C29.9054 21.3843 30.2281 20.5836 30.8082 19.9866C31.0907 19.6955 31.4286 19.4637 31.8019 19.3048C32.1752 19.1459 32.5765 19.0632 32.9822 19.0615H35.9949C36.8157 19.0897 37.5939 19.4336 38.1674 20.0213C38.741 20.6091 39.0657 21.3955 39.0738 22.2167V25.2834C39.0854 26.1137 38.7716 26.9155 38.1995 27.5174C37.9198 27.8118 37.5841 28.0474 37.2122 28.2105C36.8403 28.3735 36.4396 28.4607 36.0336 28.4671L34.7939 28.464ZM24.8397 28.4345H21.8219C20.9975 28.4206 20.2115 28.0832 19.6336 27.495C19.0557 26.9068 18.7322 26.115 18.7329 25.2905V22.2167C18.7327 21.3914 19.0559 20.5989 19.6331 20.009C20.2104 19.4192 20.9958 19.079 21.8209 19.0615H24.8397C25.6655 19.0759 26.4523 19.4152 27.0296 20.0058C27.6068 20.5965 27.9281 21.3908 27.9237 22.2167V25.2925C27.9275 26.1248 27.6022 26.9249 27.0189 27.5185C26.7356 27.8094 26.3967 28.0405 26.0223 28.1978C25.648 28.3552 25.2458 28.4357 24.8397 28.4345ZM20.7949 21.1755C20.521 21.452 20.367 21.8254 20.3664 22.2147V25.2905C20.3625 25.4857 20.3974 25.6798 20.4691 25.8615C20.5407 26.0432 20.6476 26.2089 20.7837 26.349C20.9145 26.4836 21.0708 26.5908 21.2435 26.6644C21.4161 26.7379 21.6017 26.7764 21.7893 26.7775H24.8428C25.0333 26.7766 25.2217 26.7372 25.3966 26.6617C25.5715 26.5861 25.7294 26.4759 25.8606 26.3378C26.1288 26.0563 26.2751 25.6803 26.2677 25.2915V22.2167C26.2673 21.8361 26.118 21.4707 25.8517 21.1987C25.5854 20.9267 25.2233 20.7697 24.8428 20.7612H21.7944C21.6087 20.7607 21.4247 20.797 21.2532 20.8681C21.0816 20.9393 20.9258 21.0437 20.7949 21.1755Z" fill="white"/>
</svg>
