<svg width="13" height="13" viewBox="0 0 13 13" fill="none" xmlns="http://www.w3.org/2000/svg">
<g clip-path="url(#clip0_9_1297)">
<path d="M1.72355 2.49867C1.52067 2.49867 1.3562 2.66314 1.3562 2.86602C1.3562 3.0689 1.52067 3.23337 1.72355 3.23337V2.49867ZM12.0093 3.23337C12.2121 3.23337 12.3766 3.0689 12.3766 2.86602C12.3766 2.66314 12.2121 2.49867 12.0093 2.49867V3.23337ZM1.72355 3.23337H12.0093V2.49867H1.72355V3.23337Z" fill="#201F1E" fill-opacity="0.5"/>
<path d="M4.66229 2.86602C4.66229 3.06889 4.82676 3.23336 5.02964 3.23336C5.23252 3.23336 5.39699 3.06889 5.39699 2.86602H4.66229ZM8.33576 2.86602C8.33576 3.06889 8.50024 3.23336 8.70311 3.23336C8.90598 3.23336 9.07046 3.06889 9.07046 2.86602H8.33576ZM7.96841 1.02928H5.76433V1.76398H7.96841V1.02928ZM5.76433 1.02928C5.47205 1.02928 5.19175 1.14539 4.98507 1.35206L5.50458 1.87157C5.57347 1.80268 5.66691 1.76398 5.76433 1.76398V1.02928ZM4.98507 1.35206C4.7784 1.55874 4.66229 1.83904 4.66229 2.13132H5.39699C5.39699 2.0339 5.43569 1.94046 5.50458 1.87157L4.98507 1.35206ZM4.66229 2.13132V2.86602H5.39699V2.13132H4.66229ZM9.07046 2.86602V2.13132H8.33576V2.86602H9.07046ZM9.07046 2.13132C9.07046 1.83904 8.95432 1.55874 8.74768 1.35206L8.22815 1.87157C8.29707 1.94046 8.33576 2.0339 8.33576 2.13132H9.07046ZM8.74768 1.35206C8.54099 1.14539 8.26068 1.02928 7.96841 1.02928V1.76398C8.06584 1.76398 8.15929 1.80268 8.22815 1.87157L8.74768 1.35206Z" fill="#201F1E" fill-opacity="0.5"/>
<path d="M5.39697 9.11092C5.39697 9.31379 5.56144 9.47826 5.76432 9.47826C5.96719 9.47826 6.13167 9.31379 6.13167 9.11092H5.39697ZM6.13167 5.43745C6.13167 5.23457 5.96719 5.0701 5.76432 5.0701C5.56144 5.0701 5.39697 5.23457 5.39697 5.43745H6.13167ZM6.13167 9.11092V5.43745H5.39697V9.11092H6.13167Z" fill="#201F1E" fill-opacity="0.5"/>
<path d="M7.60114 9.11092C7.60114 9.31379 7.76561 9.47826 7.96848 9.47826C8.17136 9.47826 8.33583 9.31379 8.33583 9.11092H7.60114ZM8.33583 5.43745C8.33583 5.23457 8.17136 5.0701 7.96848 5.0701C7.76561 5.0701 7.60114 5.23457 7.60114 5.43745H8.33583ZM8.33583 9.11092V5.43745H7.60114V9.11092H8.33583Z" fill="#201F1E" fill-opacity="0.5"/>
<path d="M3.19176 2.83551C3.1749 2.63332 2.99734 2.48309 2.79516 2.49995C2.59298 2.51681 2.44275 2.69437 2.4596 2.89655L3.19176 2.83551ZM11.2734 2.89653C11.2902 2.69435 11.14 2.51679 10.9378 2.49995C10.7356 2.4831 10.5581 2.63335 10.5412 2.83553L11.2734 2.89653ZM9.86287 10.9779C9.85523 11.0697 9.81336 11.1555 9.74552 11.2179L10.2431 11.7585C10.4466 11.5713 10.5722 11.3143 10.595 11.0388L9.86287 10.9779ZM9.74552 11.2179C9.67773 11.2804 9.58893 11.315 9.49675 11.315L9.49665 12.0497C9.77319 12.0497 10.0396 11.9458 10.2431 11.7585L9.74552 11.2179ZM9.49675 11.315H4.23678V12.0497H9.49665L9.49675 11.315ZM4.23678 11.315C4.14461 11.315 4.05577 11.2804 3.98794 11.2179L3.4904 11.7585C3.69386 11.9458 3.96025 12.0497 4.23678 12.0497V11.315ZM3.98794 11.2179C3.92013 11.1555 3.87825 11.0699 3.87063 10.978L3.13845 11.0388C3.16131 11.3143 3.28693 11.5713 3.4904 11.7585L3.98794 11.2179ZM3.87063 10.978L3.19176 2.83551L2.4596 2.89655L3.13845 11.0388L3.87063 10.978ZM10.5412 2.83553L9.86287 10.9779L10.595 11.0388L11.2734 2.89653L10.5412 2.83553Z" fill="#201F1E" fill-opacity="0.5"/>
</g>
<defs>
<clipPath id="clip0_9_1297">
<rect width="11.7551" height="11.7551" fill="white" transform="translate(0.988892 0.661942)"/>
</clipPath>
</defs>
</svg>
