<svg width="11" height="11" viewBox="0 0 11 11" fill="none" xmlns="http://www.w3.org/2000/svg">
<path d="M10.4974 0.888639C10.206 0.597723 9.81113 0.434326 9.3994 0.434326C8.98766 0.434326 8.59276 0.597723 8.3014 0.888639L1.33111 7.85893C1.1315 8.05741 0.973237 8.2935 0.865467 8.55355C0.757697 8.8136 0.702562 9.09243 0.703253 9.37393V10.2538C0.703253 10.3674 0.748406 10.4765 0.828779 10.5568C0.909152 10.6372 1.01816 10.6824 1.13182 10.6824H2.01168C2.29315 10.6831 2.57198 10.6281 2.83203 10.5204C3.09209 10.4127 3.32819 10.2545 3.52668 10.0549L10.4974 3.08421C10.7882 2.79287 10.9515 2.39805 10.9515 1.98642C10.9515 1.5748 10.7882 1.17998 10.4974 0.888639V0.888639ZM2.92068 9.44892C2.67897 9.68903 2.35238 9.82423 2.01168 9.82521H1.5604V9.37393C1.55996 9.20503 1.59303 9.03772 1.6577 8.88169C1.72236 8.72566 1.81733 8.584 1.93711 8.46493L7.22697 3.17507L8.21268 4.16078L2.92068 9.44892ZM9.89097 2.47821L8.81697 3.55264L7.83125 2.56907L8.90568 1.49464C8.9704 1.43006 9.04721 1.37885 9.13172 1.34396C9.21624 1.30906 9.30679 1.29115 9.39822 1.29125C9.48966 1.29135 9.58018 1.30946 9.66461 1.34454C9.74904 1.37962 9.82574 1.43099 9.89032 1.49571C9.95491 1.56043 10.0061 1.63724 10.041 1.72175C10.0759 1.80626 10.0938 1.89682 10.0937 1.98825C10.0936 2.07969 10.0755 2.1702 10.0404 2.25464C10.0053 2.33907 9.95398 2.41577 9.88925 2.48035L9.89097 2.47821Z" fill="#201F1E" fill-opacity="0.5"/>
</svg>
