<svg width="26" height="25" viewBox="0 0 26 25" fill="none" xmlns="http://www.w3.org/2000/svg">
<path d="M13.911 7.83247C13.4894 7.83247 13.1476 8.17424 13.1476 8.59583C13.1476 9.01742 13.4894 9.35919 13.911 9.35919H16.9644C17.386 9.35919 17.7278 9.01742 17.7278 8.59583C17.7278 8.17424 17.386 7.83247 16.9644 7.83247H13.911Z" fill="#7A86A1"/>
<path d="M8.8219 11.9037C8.40031 11.9037 8.05854 12.2455 8.05854 12.6671C8.05854 13.0887 8.40031 13.4304 8.8219 13.4304H16.9644C17.386 13.4304 17.7278 13.0887 17.7278 12.6671C17.7278 12.2455 17.386 11.9037 16.9644 11.9037H8.8219Z" fill="#7A86A1"/>
<path d="M13.911 15.975C13.4894 15.975 13.1476 16.3167 13.1476 16.7383C13.1476 17.1599 13.4894 17.5017 13.911 17.5017H16.9644C17.386 17.5017 17.7278 17.1599 17.7278 16.7383C17.7278 16.3167 17.386 15.975 16.9644 15.975H13.911Z" fill="#7A86A1"/>
<path fill-rule="evenodd" clip-rule="evenodd" d="M17.4362 1.85153C16.2737 1.72559 14.8084 1.72559 12.9392 1.7256H12.8471C10.9778 1.72559 9.5126 1.72559 8.35012 1.85153C7.16382 1.98006 6.20262 2.24705 5.38194 2.84331C4.8851 3.20429 4.44817 3.64122 4.08719 4.13805C3.49093 4.95874 3.22394 5.91994 3.09541 7.10624C2.96947 8.26872 2.96947 9.73396 2.96948 11.6032V13.7309C2.96947 15.6002 2.96947 17.0654 3.09541 18.2279C3.22394 19.4142 3.49093 20.3754 4.08719 21.1961C4.44817 21.6929 4.8851 22.1299 5.38194 22.4908C6.20262 23.0871 7.16382 23.3541 8.35012 23.4826C9.51258 23.6086 10.9778 23.6086 12.847 23.6086H12.9392C14.8084 23.6086 16.2737 23.6086 17.4362 23.4826C18.6225 23.3541 19.5837 23.0871 20.4044 22.4908C20.9012 22.1299 21.3381 21.6929 21.6991 21.1961C22.2954 20.3754 22.5624 19.4142 22.6909 18.2279C22.8168 17.0655 22.8168 15.6002 22.8168 13.731V11.6032C22.8168 9.73399 22.8168 8.2687 22.6909 7.10624C22.5624 5.91994 22.2954 4.95874 21.6991 4.13805C21.3381 3.64121 20.9012 3.20429 20.4044 2.84331C19.5837 2.24705 18.6225 1.98006 17.4362 1.85153ZM6.27932 4.07845C6.79637 3.70279 7.45817 3.48382 8.51457 3.36937C9.58525 3.25337 10.9679 3.25232 12.8931 3.25232C14.8184 3.25232 16.201 3.25337 17.2717 3.36937C18.3281 3.48382 18.9899 3.70279 19.507 4.07845C19.8742 4.34526 20.1972 4.66821 20.464 5.03544C20.8396 5.55249 21.0586 6.21429 21.173 7.27068C21.289 8.34137 21.2901 9.724 21.2901 11.6493V13.6849C21.2901 15.6102 21.289 16.9928 21.173 18.0635C21.0586 19.1199 20.8396 19.7817 20.464 20.2987C20.1972 20.6659 19.8742 20.9889 19.507 21.2557C18.9899 21.6314 18.3281 21.8503 17.2717 21.9648C16.201 22.0808 14.8184 22.0818 12.8931 22.0818C10.9679 22.0818 9.58525 22.0808 8.51457 21.9648C7.45817 21.8503 6.79637 21.6314 6.27932 21.2557C5.91209 20.9889 5.58914 20.6659 5.32234 20.2987C4.94667 19.7817 4.7277 19.1199 4.61325 18.0635C4.49725 16.9928 4.4962 15.6102 4.4962 13.6849V11.6493C4.4962 9.724 4.49725 8.34137 4.61325 7.27068C4.7277 6.21429 4.94667 5.55249 5.32234 5.03544C5.58914 4.66821 5.91209 4.34526 6.27932 4.07845Z" fill="#7A86A1"/>
</svg>
