<svg width="21" height="21" viewBox="0 0 21 21" fill="none" xmlns="http://www.w3.org/2000/svg">
<path d="M10.4977 2.73914C13.6466 2.73914 16.2416 5.07402 16.4821 8.09454L16.4955 8.31675L16.5 8.54128L16.499 12.1371L17.4244 14.3593C17.447 14.4134 17.4647 14.4693 17.4774 14.5263L17.4926 14.6125L17.5013 14.7437C17.5013 15.1918 17.2048 15.5779 16.7521 15.7069L16.6358 15.7336L16.5013 15.7437L12.9996 15.7431L12.9946 15.9045C12.9095 17.2081 11.8252 18.2391 10.5 18.2391C9.17453 18.2391 8.08998 17.2076 8.00533 15.9035L7.99962 15.7431L4.49891 15.7437C4.41096 15.7437 4.32358 15.7321 4.23902 15.7093L4.11456 15.6669C3.70378 15.4959 3.46181 15.0784 3.51221 14.6148L3.5333 14.4874L3.57572 14.3593L4.49902 12.1401L4.5001 8.53194L4.5044 8.30737C4.62702 5.19029 7.27104 2.73914 10.4977 2.73914ZM11.9996 15.7431H8.99962L9.00697 15.8845C9.07552 16.5972 9.64275 17.1642 10.3556 17.2323L10.5 17.2391C11.2797 17.2391 11.9205 16.6442 11.9931 15.8836L11.9996 15.7431ZM10.4977 3.73914C7.87511 3.73914 5.72717 5.66285 5.51715 8.12411L5.50393 8.33636L5.50002 8.54128V12.2391L5.46161 12.4313L4.4989 14.7437L16.4566 14.7457L16.5019 14.7437L15.5384 12.4313L15.5 12.2391L15.5001 8.55155L15.496 8.34744C15.3909 5.77404 13.1947 3.73914 10.4977 3.73914Z" fill="black"/>
</svg>
