<svg width="35" height="35" viewBox="0 0 35 35" fill="none" xmlns="http://www.w3.org/2000/svg">
<rect x="0.115723" y="0.744507" width="34" height="34" rx="6" fill="#FF9F43" fill-opacity="0.08"/>
<path fill-rule="evenodd" clip-rule="evenodd" d="M12.0231 9.72366C9.39336 9.72366 7.26154 11.8555 7.26154 14.4852C7.26154 15.2477 7.69877 15.9425 8.38611 16.2724L8.83286 16.4869C9.88797 16.9933 9.88797 18.4957 8.83286 19.0021L8.38611 19.2165C7.69877 19.5465 7.26154 20.2413 7.26154 21.0038C7.26154 23.6335 9.39336 25.7653 12.0231 25.7653H22.2083C24.838 25.7653 26.9699 23.6335 26.9699 21.0038C26.9699 20.2413 26.5326 19.5465 25.8453 19.2165L25.3985 19.0021C24.3434 18.4957 24.3434 16.9933 25.3985 16.4869L25.8453 16.2724C26.5326 15.9425 26.9699 15.2477 26.9699 14.4852C26.9699 11.8555 24.838 9.72366 22.2083 9.72366H12.0231ZM8.63654 14.4852C8.63654 12.6149 10.1528 11.0987 12.0231 11.0987H22.2083C24.0786 11.0987 25.5949 12.6149 25.5949 14.4852C25.5949 14.7188 25.4609 14.9318 25.2503 15.0329L24.8035 15.2473C22.7084 16.2529 22.7084 19.2361 24.8035 20.2417L25.2503 20.4561C25.4609 20.5572 25.5949 20.7701 25.5949 21.0038C25.5949 22.8741 24.0786 24.3903 22.2083 24.3903H12.0231C10.1528 24.3903 8.63654 22.8741 8.63654 21.0038C8.63654 20.7701 8.77051 20.5572 8.98111 20.4561L9.42787 20.2417C11.523 19.2361 11.523 16.2529 9.42787 15.2473L8.98111 15.0329C8.77051 14.9318 8.63654 14.7188 8.63654 14.4852Z" fill="#F98C4E"/>
<path fill-rule="evenodd" clip-rule="evenodd" d="M18.6721 15.4641C18.1868 13.9213 16.0446 13.9213 15.5593 15.4641C15.5189 15.5926 15.4123 15.6588 15.3145 15.6588C13.687 15.6588 13.1146 17.7422 14.3452 18.6658C14.4382 18.7356 14.4875 18.8715 14.446 19.0033C14.2092 19.7562 14.514 20.4634 15.0332 20.8531C15.5556 21.2452 16.3283 21.336 16.9718 20.8531C17.0592 20.7875 17.1723 20.7875 17.2596 20.8531C17.9031 21.336 18.6758 21.2452 19.1982 20.8531C19.7174 20.4634 20.0222 19.7562 19.7854 19.0033C19.7439 18.8715 19.7932 18.7356 19.8862 18.6658C21.1168 17.7422 20.5445 15.6588 18.9169 15.6588C18.8191 15.6588 18.7125 15.5926 18.6721 15.4641ZM16.8709 15.8767C16.9526 15.6171 17.2788 15.6171 17.3605 15.8767C17.5736 16.5543 18.1943 17.0338 18.9169 17.0338C18.9873 17.0338 19.0325 17.0547 19.0661 17.0816C19.1044 17.1122 19.1409 17.1623 19.1617 17.2285C19.2038 17.3623 19.1676 17.486 19.0609 17.5661C18.4901 17.9944 18.2616 18.7416 18.4737 19.4159C18.5204 19.5642 18.4676 19.6823 18.3728 19.7534C18.3244 19.7898 18.2738 19.8056 18.2316 19.8069C18.1952 19.808 18.1465 19.7996 18.085 19.7534C17.5086 19.3208 16.7228 19.3208 16.1464 19.7534C16.0849 19.7996 16.0362 19.808 15.9998 19.8069C15.9576 19.8056 15.907 19.7898 15.8586 19.7534C15.7638 19.6823 15.711 19.5642 15.7577 19.4159C15.9698 18.7416 15.7413 17.9944 15.1705 17.5661C15.0638 17.486 15.0276 17.3623 15.0697 17.2285C15.0905 17.1623 15.127 17.1122 15.1653 17.0816C15.1989 17.0547 15.2441 17.0338 15.3145 17.0338C16.0371 17.0338 16.6578 16.5543 16.8709 15.8767Z" fill="#F98C4E"/>
</svg>
