<svg width="35" height="35" viewBox="0 0 35 35" fill="none" xmlns="http://www.w3.org/2000/svg">
<rect x="0.115723" y="0.744507" width="34" height="34" rx="6" fill="#6149CD" fill-opacity="0.08"/>
<path d="M14.1365 10.4112C14.1365 10.0315 13.8287 9.72369 13.449 9.72369C13.0693 9.72369 12.7615 10.0315 12.7615 10.4112V11.389C12.7615 11.7687 13.0693 12.0765 13.449 12.0765C13.8287 12.0765 14.1365 11.7687 14.1365 11.389V10.4112Z" fill="#6149CD"/>
<path d="M14.1365 14.3223C14.1365 13.9426 13.8287 13.6348 13.449 13.6348C13.0693 13.6348 12.7615 13.9426 12.7615 14.3223V16.2779C12.7615 16.6576 13.0693 16.9654 13.449 16.9654C13.8287 16.9654 14.1365 16.6576 14.1365 16.2779V14.3223Z" fill="#6149CD"/>
<path d="M14.1365 19.2112C14.1365 18.8315 13.8287 18.5237 13.449 18.5237C13.0693 18.5237 12.7615 18.8315 12.7615 19.2112V21.1668C12.7615 21.5464 13.0693 21.8543 13.449 21.8543C13.8287 21.8543 14.1365 21.5464 14.1365 21.1668V19.2112Z" fill="#6149CD"/>
<path d="M14.1365 24.1001C14.1365 23.7204 13.8287 23.4126 13.449 23.4126C13.0693 23.4126 12.7615 23.7204 12.7615 24.1001V25.0779C12.7615 25.4576 13.0693 25.7654 13.449 25.7654C13.8287 25.7654 14.1365 25.4576 14.1365 25.0779V24.1001Z" fill="#6149CD"/>
<path fill-rule="evenodd" clip-rule="evenodd" d="M20.5055 15.4642C20.0202 13.9213 17.8779 13.9213 17.3926 15.4642C17.3522 15.5926 17.2456 15.6589 17.1478 15.6589C15.5203 15.6589 14.9479 17.7422 16.1785 18.6658C16.2716 18.7356 16.3208 18.8715 16.2794 19.0033C16.0426 19.7562 16.3473 20.4635 16.8665 20.8531C17.389 21.2452 18.1616 21.3361 18.8051 20.8531C18.8925 20.7876 19.0056 20.7876 19.093 20.8531C19.7364 21.3361 20.5091 21.2452 21.0315 20.8531C21.5508 20.4635 21.8555 19.7562 21.6187 19.0033C21.5772 18.8715 21.6265 18.7356 21.7196 18.6658C22.9501 17.7422 22.3778 15.6589 20.7503 15.6589C20.6524 15.6589 20.5459 15.5926 20.5055 15.4642ZM18.7042 15.8767C18.7859 15.6171 19.1122 15.6171 19.1938 15.8767C19.407 16.5544 20.0276 17.0339 20.7503 17.0339C20.8207 17.0339 20.8658 17.0548 20.8994 17.0816C20.9378 17.1123 20.9742 17.1623 20.9951 17.2286C21.0371 17.3624 21.0009 17.486 20.8942 17.5661C20.3234 17.9945 20.0949 18.7416 20.307 19.4159C20.3537 19.5642 20.3009 19.6823 20.2062 19.7534C20.1577 19.7898 20.1071 19.8056 20.0649 19.8069C20.0286 19.8081 19.9799 19.7996 19.9183 19.7534C19.3419 19.3208 18.5562 19.3208 17.9797 19.7534C17.9182 19.7996 17.8695 19.8081 17.8331 19.8069C17.791 19.8056 17.7404 19.7898 17.6919 19.7534C17.5972 19.6823 17.5444 19.5642 17.591 19.4159C17.8031 18.7416 17.5746 17.9945 17.0039 17.5661C16.8972 17.486 16.8609 17.3624 16.903 17.2286C16.9239 17.1623 16.9603 17.1123 16.9986 17.0816C17.0323 17.0548 17.0774 17.0339 17.1478 17.0339C17.8705 17.0339 18.4911 16.5544 18.7042 15.8767Z" fill="#6149CD"/>
<path fill-rule="evenodd" clip-rule="evenodd" d="M12.0231 9.72369C9.39336 9.72369 7.26154 11.8555 7.26154 14.4853C7.26154 15.2477 7.69877 15.9426 8.38611 16.2725L8.83286 16.4869C9.88797 16.9934 9.88797 18.4957 8.83286 19.0021L8.38611 19.2166C7.69877 19.5465 7.26154 20.2414 7.26154 21.0038C7.26154 23.6335 9.39336 25.7654 12.0231 25.7654H22.2083C24.838 25.7654 26.9699 23.6335 26.9699 21.0038C26.9699 20.2414 26.5326 19.5465 25.8453 19.2166L25.3985 19.0021C24.3434 18.4957 24.3434 16.9934 25.3985 16.4869L25.8453 16.2725C26.5326 15.9426 26.9699 15.2477 26.9699 14.4853C26.9699 11.8555 24.838 9.72369 22.2083 9.72369H12.0231ZM8.63654 14.4853C8.63654 12.6149 10.1528 11.0987 12.0231 11.0987H22.2083C24.0786 11.0987 25.5949 12.6149 25.5949 14.4853C25.5949 14.7189 25.4609 14.9318 25.2503 15.0329L24.8035 15.2473C22.7084 16.253 22.7084 19.2361 24.8035 20.2417L25.2503 20.4562C25.4609 20.5573 25.5949 20.7702 25.5949 21.0038C25.5949 22.8741 24.0786 24.3904 22.2083 24.3904H12.0231C10.1528 24.3904 8.63654 22.8741 8.63654 21.0038C8.63654 20.7702 8.77051 20.5573 8.98111 20.4562L9.42787 20.2417C11.523 19.2361 11.523 16.253 9.42787 15.2473L8.98111 15.0329C8.77051 14.9318 8.63654 14.7189 8.63654 14.4853Z" fill="#6149CD"/>
</svg>
