<svg width="26" height="25" viewBox="0 0 26 25" fill="none" xmlns="http://www.w3.org/2000/svg">
<path fill-rule="evenodd" clip-rule="evenodd" d="M19.9541 3.74846C20.7907 4.585 21.0853 5.75739 20.8387 6.83091C22.5107 6.9964 23.8168 8.40696 23.8168 10.1226C23.8168 11.0795 23.4104 11.9416 22.7609 12.5455C22.799 13.1505 22.799 13.7107 22.799 14.8195V14.8753C22.799 16.0943 22.799 17.0465 22.7489 17.8148C22.6981 18.5951 22.5934 19.2397 22.3581 19.8347C21.77 21.3222 20.6373 22.5151 19.1979 23.1397C18.6184 23.3911 17.9918 23.5022 17.241 23.5559C16.504 23.6086 15.5922 23.6086 14.4317 23.6086H11.319C10.1585 23.6086 9.24662 23.6086 8.50966 23.5559C7.75885 23.5022 7.13221 23.3911 6.55269 23.1397C5.11332 22.5151 3.98062 21.3222 3.39251 19.8347C3.15726 19.2397 3.0525 18.5951 3.00169 17.8148C2.95164 17.0465 2.95165 16.0944 2.95165 14.8753V14.8481C2.95165 14.364 2.942 13.9739 2.93357 13.6326C2.92296 13.2037 2.91426 12.8519 2.92903 12.4876C2.31496 11.8871 1.93384 11.0493 1.93384 10.1226C1.93384 8.35363 3.32235 6.90899 5.06893 6.81911C4.82714 5.74881 5.12267 4.58195 5.95614 3.74847C7.24795 2.45666 9.34239 2.45666 10.6342 3.74847L12.7933 5.90758C12.8497 5.96397 12.9036 6.02192 12.9551 6.0813C13.0066 6.02191 13.0606 5.96396 13.117 5.90756L15.2761 3.74846C16.5679 2.45665 18.6623 2.45665 19.9541 3.74846ZM16.3556 4.82801C17.0512 4.13242 18.179 4.13242 18.8746 4.82801C19.4115 5.36489 19.5342 6.16027 19.2418 6.81468H14.369L16.3556 4.82801ZM9.55465 4.82803L11.5413 6.81468H6.66845C6.37605 6.16027 6.49883 5.3649 7.0357 4.82803C7.73129 4.13244 8.85906 4.13244 9.55465 4.82803ZM3.46056 10.1226C3.46056 9.13885 4.25801 8.34139 5.24173 8.34139H12.112V11.9037H5.24173C4.25801 11.9037 3.46056 11.1063 3.46056 10.1226ZM13.6387 21.8274L13.6387 13.4305H20.5089C20.769 13.4305 21.0221 13.4004 21.2648 13.3437C21.2721 13.7191 21.2723 14.1762 21.2723 14.8481C21.2723 16.1002 21.2719 17.0027 21.2255 17.7156C21.1794 18.4223 21.0905 18.8886 20.9384 19.2734C20.4935 20.3986 19.6447 21.2815 18.5902 21.7391C18.2345 21.8935 17.8007 21.9853 17.1321 22.0331C16.4559 22.0814 15.5986 22.0819 14.402 22.0819H13.5952C13.6234 22.0023 13.6387 21.9166 13.6387 21.8274ZM12.112 21.8274L12.112 13.4305H5.24173C4.97026 13.4305 4.70643 13.3978 4.45397 13.3361L4.45774 13.4769C4.4669 13.8153 4.47837 14.2389 4.47837 14.8481C4.47837 16.1002 4.47874 17.0027 4.52518 17.7156C4.5712 18.4223 4.66014 18.8886 4.81227 19.2734C5.25717 20.3986 6.10589 21.2815 7.16044 21.7391C7.51615 21.8935 7.94992 21.9853 8.61851 22.0331C9.29469 22.0814 10.1521 22.0819 11.3486 22.0819H12.1554C12.1273 22.0023 12.112 21.9166 12.112 21.8274ZM22.2901 10.1226C22.2901 9.13885 21.4926 8.34139 20.5089 8.34139H13.6387V11.9037H20.5089C21.4926 11.9037 22.2901 11.1063 22.2901 10.1226Z" fill="#7A86A1"/>
</svg>
