<svg width="26" height="25" viewBox="0 0 26 25" fill="none" xmlns="http://www.w3.org/2000/svg">
<path fill-rule="evenodd" clip-rule="evenodd" d="M13.8879 5.54239C13.8879 5.1208 13.5462 4.77903 13.1246 4.77903C12.703 4.77903 12.3612 5.1208 12.3612 5.54239V5.85595C12.0286 5.93938 11.7023 6.06974 11.3915 6.24915C8.6212 7.84861 8.97331 11.9535 11.9756 13.0578L12.3613 13.1997L12.3612 17.9795C11.8168 17.8259 11.3304 17.4681 11.0259 16.9406L10.6436 16.2785C10.4328 15.9134 9.96594 15.7883 9.60084 15.9991C9.23573 16.2099 9.11063 16.6768 9.32143 17.0419L9.70368 17.704C10.2925 18.7238 11.2851 19.3639 12.3612 19.5408L12.3612 19.7917C12.3612 20.2133 12.703 20.5551 13.1246 20.5551C13.5462 20.5551 13.8879 20.2134 13.8879 19.7918L13.888 19.4782C14.2206 19.3948 14.547 19.2644 14.8577 19.085C17.6281 17.4855 17.276 13.3807 14.2737 12.2764L13.888 12.1345L13.888 7.35463C14.4324 7.50817 14.9189 7.86603 15.2234 8.39353L15.6057 9.05562C15.8165 9.42073 16.2833 9.54582 16.6484 9.33503C17.0136 9.12423 17.1387 8.65737 16.9279 8.29226L16.5456 7.63018C15.9568 6.61036 14.9642 5.97021 13.8879 5.79328V5.54239ZM12.1549 7.57133C12.2227 7.5322 12.2915 7.49703 12.3612 7.46574L12.3613 11.5678C10.7052 10.8366 10.5501 8.49787 12.1549 7.57133ZM13.888 17.8684L13.888 13.7663C15.5441 14.4976 15.6992 16.8363 14.0944 17.7628C14.0266 17.802 13.9577 17.8371 13.888 17.8684Z" fill="#7A86A1"/>
<path fill-rule="evenodd" clip-rule="evenodd" d="M17.6676 2.86934C16.5051 2.74339 15.0399 2.7434 13.1706 2.74341H13.0785C11.2093 2.7434 9.74404 2.74339 8.58156 2.86934C7.39527 2.99787 6.43407 3.26486 5.61338 3.86112C5.11654 4.2221 4.67962 4.65902 4.31864 5.15586C3.72238 5.97655 3.45539 6.93775 3.32686 8.12405C3.20091 9.28652 3.20092 10.7518 3.20093 12.621V12.7131C3.20092 14.5824 3.20091 16.0476 3.32686 17.2101C3.45539 18.3964 3.72238 19.3576 4.31864 20.1783C4.67961 20.6751 5.11654 21.112 5.61338 21.473C6.43407 22.0693 7.39527 22.3363 8.58156 22.4648C9.74402 22.5907 11.2092 22.5907 13.0784 22.5907H13.1707C15.0399 22.5907 16.5052 22.5907 17.6676 22.4648C18.8539 22.3363 19.8151 22.0693 20.6358 21.473C21.1326 21.1121 21.5696 20.6751 21.9305 20.1783C22.5268 19.3576 22.7938 18.3964 22.9223 17.2101C23.0483 16.0476 23.0483 14.5824 23.0483 12.7132V12.621C23.0483 10.7518 23.0483 9.2865 22.9223 8.12405C22.7938 6.93775 22.5268 5.97655 21.9305 5.15586C21.5696 4.65902 21.1326 4.22209 20.6358 3.86112C19.8151 3.26486 18.8539 2.99787 17.6676 2.86934ZM6.51076 5.09626C7.02782 4.7206 7.68961 4.50163 8.74601 4.38718C9.8167 4.27117 11.1993 4.27013 13.1246 4.27013C15.0499 4.27013 16.4325 4.27117 17.5032 4.38718C18.5596 4.50163 19.2214 4.7206 19.7384 5.09626C20.1056 5.36307 20.4286 5.68602 20.6954 6.05324C21.0711 6.5703 21.29 7.23209 21.4045 8.28849C21.5205 9.35918 21.5215 10.7418 21.5215 12.6671C21.5215 14.5923 21.5205 15.975 21.4045 17.0457C21.29 18.102 21.0711 18.7638 20.6954 19.2809C20.4286 19.6481 20.1056 19.9711 19.7384 20.2379C19.2214 20.6135 18.5596 20.8325 17.5032 20.947C16.4325 21.063 15.0499 21.064 13.1246 21.064C11.1993 21.064 9.8167 21.063 8.74601 20.947C7.68961 20.8325 7.02782 20.6135 6.51076 20.2379C6.14353 19.9711 5.82059 19.6481 5.55378 19.2809C5.17812 18.7638 4.95915 18.102 4.84469 17.0457C4.72869 15.975 4.72765 14.5923 4.72765 12.6671C4.72765 10.7418 4.72869 9.35918 4.84469 8.28849C4.95915 7.23209 5.17812 6.5703 5.55378 6.05324C5.82059 5.68601 6.14353 5.36307 6.51076 5.09626Z" fill="#7A86A1"/>
</svg>
