<svg width="13" height="13" viewBox="0 0 13 13" fill="none" xmlns="http://www.w3.org/2000/svg">
<path d="M10.1571 10.6325C10.3871 10.8625 10.7421 10.5075 10.5121 10.2825L8.63708 8.40246C9.27208 7.69746 9.65708 6.76746 9.65708 5.74746C9.65708 3.55246 7.87208 1.76746 5.67708 1.76746C3.48208 1.76746 1.69708 3.55246 1.69708 5.74746C1.69708 7.94246 3.48208 9.72746 5.67708 9.72746C6.66708 9.72746 7.58208 9.36246 8.28208 8.75746L10.1571 10.6325ZM2.19658 5.74746C2.19658 3.82746 3.76158 2.26746 5.67658 2.26746C7.59658 2.26746 9.15658 3.82746 9.15658 5.74746C9.15658 7.66746 7.59658 9.22746 5.67658 9.22746C3.76158 9.22746 2.19658 7.66746 2.19658 5.74746Z" fill="black" fill-opacity="0.5"/>
</svg>
