<svg width="26" height="25" viewBox="0 0 26 25" fill="none" xmlns="http://www.w3.org/2000/svg">
<path d="M9.70994 4.52459C9.70994 4.103 9.36818 3.76123 8.94658 3.76123C8.52499 3.76123 8.18322 4.103 8.18322 4.52459V5.61026C8.18322 6.03185 8.52499 6.37361 8.94658 6.37361C9.36818 6.37361 9.70994 6.03185 9.70994 5.61026V4.52459Z" fill="#7A86A1"/>
<path d="M9.70994 8.86725C9.70994 8.44566 9.36818 8.10389 8.94658 8.10389C8.52499 8.10389 8.18322 8.44566 8.18322 8.86725V11.0386C8.18322 11.4602 8.52499 11.8019 8.94658 11.8019C9.36818 11.8019 9.70994 11.4602 9.70994 11.0386V8.86725Z" fill="#7A86A1"/>
<path d="M9.70994 14.2956C9.70994 13.874 9.36818 13.5322 8.94658 13.5322C8.52499 13.5322 8.18322 13.874 8.18322 14.2956V16.4669C8.18322 16.8885 8.52499 17.2303 8.94658 17.2303C9.36818 17.2303 9.70994 16.8885 9.70994 16.4669V14.2956Z" fill="#7A86A1"/>
<path d="M9.70994 19.7239C9.70994 19.3023 9.36818 18.9606 8.94658 18.9606C8.52499 18.9606 8.18322 19.3023 8.18322 19.7239V20.8096C8.18322 21.2312 8.52499 21.5729 8.94658 21.5729C9.36818 21.5729 9.70994 21.2312 9.70994 20.8096V19.7239Z" fill="#7A86A1"/>
<path fill-rule="evenodd" clip-rule="evenodd" d="M16.7816 10.1351C16.2428 8.42202 13.8641 8.42202 13.3253 10.1351C13.2804 10.2777 13.1621 10.3513 13.0535 10.3513C11.2464 10.3513 10.6109 12.6646 11.9772 13.69C12.0805 13.7675 12.1353 13.9185 12.0892 14.0648C11.8263 14.9007 12.1647 15.686 12.7412 16.1187C13.3212 16.5541 14.1792 16.6549 14.8936 16.1187C14.9907 16.0459 15.1162 16.0459 15.2133 16.1187C15.9277 16.6549 16.7857 16.5541 17.3657 16.1187C17.9423 15.686 18.2806 14.9007 18.0177 14.0648C17.9717 13.9185 18.0264 13.7675 18.1297 13.69C19.496 12.6646 18.8605 10.3513 17.0534 10.3513C16.9448 10.3513 16.8265 10.2777 16.7816 10.1351ZM14.7817 10.5932C14.8723 10.3049 15.2346 10.3049 15.3253 10.5932C15.5619 11.3456 16.251 11.878 17.0534 11.878C17.1316 11.878 17.1817 11.9012 17.2191 11.931C17.2616 11.9651 17.3021 12.0206 17.3252 12.0942C17.372 12.2428 17.3317 12.38 17.2132 12.469C16.5795 12.9446 16.3258 13.7742 16.5613 14.5229C16.6131 14.6876 16.5545 14.8187 16.4493 14.8976C16.3955 14.938 16.3393 14.9556 16.2925 14.9571C16.2521 14.9583 16.198 14.9489 16.1297 14.8976C15.4897 14.4173 14.6172 14.4173 13.9772 14.8976C13.9089 14.9489 13.8548 14.9583 13.8144 14.9571C13.7676 14.9556 13.7114 14.938 13.6576 14.8976C13.5524 14.8187 13.4938 14.6876 13.5456 14.5229C13.7811 13.7742 13.5274 12.9446 12.8937 12.469C12.7752 12.38 12.735 12.2427 12.7817 12.0942C12.8048 12.0206 12.8453 11.9651 12.8878 11.931C12.9252 11.9012 12.9753 11.878 13.0535 11.878C13.8559 11.878 14.545 11.3456 14.7817 10.5932Z" fill="#7A86A1"/>
<path fill-rule="evenodd" clip-rule="evenodd" d="M7.36332 3.76123C4.44341 3.76123 2.07635 6.12829 2.07635 9.0482C2.07635 9.89474 2.56183 10.6663 3.32501 11.0326L3.82106 11.2707C4.99259 11.833 4.99259 13.5011 3.82106 14.0635L3.32501 14.3016C2.56183 14.6679 2.07635 15.4394 2.07635 16.286C2.07635 19.2059 4.44341 21.5729 7.36332 21.5729H18.6723C21.5923 21.5729 23.9593 19.2059 23.9593 16.286C23.9593 15.4394 23.4738 14.6679 22.7106 14.3016L22.2146 14.0635C21.0431 13.5011 21.0431 11.833 22.2146 11.2707L22.7106 11.0326C23.4738 10.6663 23.9593 9.89474 23.9593 9.0482C23.9593 6.12829 21.5923 3.76123 18.6723 3.76123H7.36332ZM3.60307 9.0482C3.60307 6.97147 5.28659 5.28795 7.36332 5.28795H18.6723C20.7491 5.28795 22.4326 6.97147 22.4326 9.0482C22.4326 9.30759 22.2838 9.54399 22.05 9.65623L21.5539 9.89434C19.2277 11.0109 19.2277 14.3232 21.5539 15.4398L22.05 15.6779C22.2838 15.7902 22.4326 16.0266 22.4326 16.286C22.4326 18.3627 20.7491 20.0462 18.6723 20.0462H7.36332C5.28659 20.0462 3.60307 18.3627 3.60307 16.286C3.60307 16.0266 3.75183 15.7902 3.98567 15.6779L4.48172 15.4398C6.80799 14.3232 6.80799 11.0109 4.48172 9.89434L3.98567 9.65623C3.75183 9.54399 3.60307 9.30759 3.60307 9.0482Z" fill="#7A86A1"/>
</svg>
