<svg width="35" height="35" viewBox="0 0 35 35" fill="none" xmlns="http://www.w3.org/2000/svg">
<rect x="0.115753" y="0.744507" width="34" height="34" rx="6" fill="#7C9AF4" fill-opacity="0.08"/>
<path d="M20.0373 15.7952C20.3058 15.5267 20.3058 15.0914 20.0373 14.8229C19.7689 14.5544 19.3336 14.5544 19.0651 14.8229L13.8796 20.0084C13.6111 20.2768 13.6111 20.7121 13.8796 20.9806C14.1481 21.2491 14.5834 21.2491 14.8519 20.9806L20.0373 15.7952Z" fill="#1E54F5"/>
<path fill-rule="evenodd" clip-rule="evenodd" d="M12.0232 9.72366C9.39343 9.72366 7.2616 11.8555 7.2616 14.4852C7.2616 15.2477 7.69883 15.9425 8.38617 16.2724L8.83292 16.4869C9.88803 16.9933 9.88803 18.4957 8.83292 19.0021L8.38617 19.2165C7.69883 19.5465 7.2616 20.2413 7.2616 21.0038C7.2616 23.6335 9.39343 25.7653 12.0232 25.7653H22.2084C24.8381 25.7653 26.9699 23.6335 26.9699 21.0038C26.9699 20.2413 26.5327 19.5465 25.8454 19.2165L25.3986 19.0021C24.3435 18.4957 24.3435 16.9933 25.3986 16.4869L25.8454 16.2724C26.5327 15.9425 26.9699 15.2477 26.9699 14.4852C26.9699 11.8555 24.8381 9.72366 22.2084 9.72366H12.0232ZM8.6366 14.4852C8.6366 12.6149 10.1528 11.0987 12.0232 11.0987H22.2084C24.0787 11.0987 25.5949 12.6149 25.5949 14.4852C25.5949 14.7188 25.461 14.9318 25.2504 15.0329L24.8036 15.2473C22.7085 16.2529 22.7085 19.2361 24.8036 20.2417L25.2504 20.4561C25.461 20.5572 25.5949 20.7701 25.5949 21.0038C25.5949 22.8741 24.0787 24.3903 22.2084 24.3903H12.0232C10.1528 24.3903 8.6366 22.8741 8.6366 21.0038C8.6366 20.7701 8.77057 20.5572 8.98117 20.4561L9.42793 20.2417C11.523 19.2361 11.523 16.2529 9.42793 15.2473L8.98117 15.0329C8.77057 14.9318 8.6366 14.7188 8.6366 14.4852Z" fill="#1E54F5"/>
<path d="M13.4491 14.9945C13.4491 15.5008 13.8595 15.9112 14.3658 15.9112C14.872 15.9112 15.2824 15.5008 15.2824 14.9945C15.2824 14.4882 14.872 14.0778 14.3658 14.0778C13.8595 14.0778 13.4491 14.4882 13.4491 14.9945Z" fill="#1E54F5"/>
<path d="M18.9491 20.4945C18.9491 21.0008 19.3595 21.4112 19.8658 21.4112C20.372 21.4112 20.7824 21.0008 20.7824 20.4945C20.7824 19.9882 20.372 19.5778 19.8658 19.5778C19.3595 19.5778 18.9491 19.9882 18.9491 20.4945Z" fill="#1E54F5"/>
</svg>
